<svg width="248" height="52" viewBox="0 0 248 52" fill="none" xmlns="http://www.w3.org/2000/svg">
<path fill-rule="evenodd" clip-rule="evenodd" d="M32.3238 15.6712C31.4484 13.0398 14.7724 -2.51828 6.68508 0.351745C-1.40512 3.21886 -1.56744 16.2504 3.07913 29.4595C7.7228 42.6686 11.6418 53.1329 16.2768 51.7473C18.7912 50.9962 20.5074 47.3302 22.7567 42.5255C23.8109 40.2737 24.9822 37.7717 26.4076 35.2025C31.3644 26.2722 33.8833 20.3721 32.3209 15.6712H32.3238ZM15.4681 32.8826C13.2303 33.4444 9.96637 14.9027 11.7404 14.1605C13.9781 13.2232 21.993 17.9037 22.5524 20.3371C23.1118 22.7706 17.7058 32.3179 15.4681 32.8797V32.8826Z" fill="#4DAAB8"/>
<path d="M45.3331 16.067C40.2086 16.067 39.1823 19.0486 37.9024 22.7672C37.2782 24.5806 36.5937 26.5692 35.3442 28.4728C35.0103 28.9816 34.6845 29.4747 34.3682 29.9533C31.1096 34.8845 28.8669 38.2784 29.2976 41.5392C29.5614 43.5186 31.5325 51.1739 35.8689 51.9656C39.2632 52.5856 43.0779 44.7178 46.0027 36.1136C49.684 25.2884 52.1884 16.067 45.3331 16.067Z" fill="#4DAAB8"/>
<path d="M38.5009 7.61996C35.3471 1.09108 41.2604 -1.61885 46.1882 1.45493C50.1043 3.89707 52.0116 10.0679 50.4608 12.7662C48.91 15.4645 41.559 13.9509 38.5009 7.61996Z" fill="#4DAAB8"/>
<path d="M75.076 35.86C73.812 35.86 72.672 35.64 71.656 35.2C70.648 34.76 69.816 34.132 69.16 33.316C68.512 32.492 68.1 31.516 67.924 30.388L70.924 29.932C71.18 30.956 71.704 31.748 72.496 32.308C73.296 32.868 74.216 33.148 75.256 33.148C75.872 33.148 76.452 33.052 76.996 32.86C77.54 32.668 77.98 32.388 78.316 32.02C78.66 31.652 78.832 31.2 78.832 30.664C78.832 30.424 78.792 30.204 78.712 30.004C78.632 29.796 78.512 29.612 78.352 29.452C78.2 29.292 78 29.148 77.752 29.02C77.512 28.884 77.232 28.768 76.912 28.672L72.448 27.352C72.064 27.24 71.648 27.092 71.2 26.908C70.76 26.716 70.34 26.456 69.94 26.128C69.548 25.792 69.224 25.368 68.968 24.856C68.72 24.336 68.596 23.696 68.596 22.936C68.596 21.824 68.876 20.892 69.436 20.14C70.004 19.38 70.764 18.812 71.716 18.436C72.676 18.06 73.74 17.876 74.908 17.884C76.092 17.892 77.148 18.096 78.076 18.496C79.004 18.888 79.78 19.46 80.404 20.212C81.028 20.964 81.468 21.872 81.724 22.936L78.616 23.476C78.488 22.868 78.24 22.352 77.872 21.928C77.512 21.496 77.068 21.168 76.54 20.944C76.02 20.72 75.464 20.6 74.872 20.584C74.296 20.576 73.76 20.664 73.264 20.848C72.776 21.024 72.38 21.28 72.076 21.616C71.78 21.952 71.632 22.344 71.632 22.792C71.632 23.216 71.76 23.564 72.016 23.836C72.272 24.1 72.588 24.312 72.964 24.472C73.348 24.624 73.736 24.752 74.128 24.856L77.224 25.72C77.648 25.832 78.124 25.984 78.652 26.176C79.18 26.368 79.688 26.636 80.176 26.98C80.664 27.324 81.064 27.776 81.376 28.336C81.696 28.896 81.856 29.608 81.856 30.472C81.856 31.368 81.668 32.156 81.292 32.836C80.924 33.508 80.424 34.068 79.792 34.516C79.16 34.964 78.436 35.3 77.62 35.524C76.812 35.748 75.964 35.86 75.076 35.86ZM92.7694 35.5C91.9134 35.66 91.0734 35.728 90.2494 35.704C89.4334 35.688 88.7014 35.54 88.0534 35.26C87.4054 34.972 86.9134 34.52 86.5774 33.904C86.2814 33.344 86.1254 32.772 86.1094 32.188C86.0934 31.604 86.0854 30.944 86.0854 30.208V18.94H88.9654V30.04C88.9654 30.56 88.9694 31.016 88.9774 31.408C88.9934 31.8 89.0774 32.12 89.2294 32.368C89.5174 32.848 89.9774 33.116 90.6094 33.172C91.2414 33.228 91.9614 33.196 92.7694 33.076V35.5ZM83.7334 24.808V22.54H92.7694V24.808H83.7334ZM101.344 35.86C100.048 35.86 98.916 35.568 97.948 34.984C96.98 34.4 96.228 33.596 95.692 32.572C95.164 31.54 94.9 30.356 94.9 29.02C94.9 27.66 95.172 26.468 95.716 25.444C96.26 24.42 97.016 23.62 97.984 23.044C98.952 22.468 100.072 22.18 101.344 22.18C102.648 22.18 103.784 22.472 104.752 23.056C105.72 23.64 106.472 24.448 107.008 25.48C107.544 26.504 107.812 27.684 107.812 29.02C107.812 30.364 107.54 31.552 106.996 32.584C106.46 33.608 105.708 34.412 104.74 34.996C103.772 35.572 102.64 35.86 101.344 35.86ZM101.344 33.148C102.496 33.148 103.352 32.764 103.912 31.996C104.472 31.228 104.752 30.236 104.752 29.02C104.752 27.764 104.468 26.764 103.9 26.02C103.332 25.268 102.48 24.892 101.344 24.892C100.568 24.892 99.928 25.068 99.424 25.42C98.928 25.764 98.56 26.248 98.32 26.872C98.08 27.488 97.96 28.204 97.96 29.02C97.96 30.276 98.244 31.28 98.812 32.032C99.388 32.776 100.232 33.148 101.344 33.148ZM126.74 35.5V27.628C126.74 26.74 126.52 26.048 126.08 25.552C125.64 25.048 125.044 24.796 124.292 24.796C123.828 24.796 123.412 24.904 123.044 25.12C122.676 25.328 122.384 25.64 122.168 26.056C121.952 26.464 121.844 26.952 121.844 27.52L120.56 26.764C120.552 25.868 120.752 25.08 121.16 24.4C121.576 23.712 122.136 23.176 122.84 22.792C123.544 22.408 124.328 22.216 125.192 22.216C126.624 22.216 127.72 22.648 128.48 23.512C129.248 24.368 129.632 25.496 129.632 26.896V35.5H126.74ZM111.152 35.5V22.54H113.708V26.56H114.068V35.5H111.152ZM118.964 35.5V27.664C118.964 26.76 118.744 26.056 118.304 25.552C117.864 25.048 117.264 24.796 116.504 24.796C115.768 24.796 115.176 25.048 114.728 25.552C114.288 26.056 114.068 26.712 114.068 27.52L112.772 26.656C112.772 25.816 112.98 25.06 113.396 24.388C113.812 23.716 114.372 23.188 115.076 22.804C115.788 22.412 116.584 22.216 117.464 22.216C118.432 22.216 119.24 22.424 119.888 22.84C120.544 23.248 121.032 23.808 121.352 24.52C121.68 25.224 121.844 26.02 121.844 26.908V35.5H118.964ZM137.106 35.86C136.17 35.86 135.378 35.684 134.73 35.332C134.082 34.972 133.59 34.496 133.254 33.904C132.926 33.312 132.762 32.66 132.762 31.948C132.762 31.324 132.866 30.764 133.074 30.268C133.282 29.764 133.602 29.332 134.034 28.972C134.466 28.604 135.026 28.304 135.714 28.072C136.234 27.904 136.842 27.752 137.538 27.616C138.242 27.48 139.002 27.356 139.818 27.244C140.642 27.124 141.502 26.996 142.398 26.86L141.366 27.448C141.374 26.552 141.174 25.892 140.766 25.468C140.358 25.044 139.67 24.832 138.702 24.832C138.118 24.832 137.554 24.968 137.01 25.24C136.466 25.512 136.086 25.98 135.87 26.644L133.23 25.816C133.55 24.72 134.158 23.84 135.054 23.176C135.958 22.512 137.174 22.18 138.702 22.18C139.854 22.18 140.866 22.368 141.738 22.744C142.618 23.12 143.27 23.736 143.694 24.592C143.926 25.048 144.066 25.516 144.114 25.996C144.162 26.468 144.186 26.984 144.186 27.544V35.5H141.654V32.692L142.074 33.148C141.49 34.084 140.806 34.772 140.022 35.212C139.246 35.644 138.274 35.86 137.106 35.86ZM137.682 33.556C138.338 33.556 138.898 33.44 139.362 33.208C139.826 32.976 140.194 32.692 140.466 32.356C140.746 32.02 140.934 31.704 141.03 31.408C141.182 31.04 141.266 30.62 141.282 30.148C141.306 29.668 141.318 29.28 141.318 28.984L142.206 29.248C141.334 29.384 140.586 29.504 139.962 29.608C139.338 29.712 138.802 29.812 138.354 29.908C137.906 29.996 137.51 30.096 137.166 30.208C136.83 30.328 136.546 30.468 136.314 30.628C136.082 30.788 135.902 30.972 135.774 31.18C135.654 31.388 135.594 31.632 135.594 31.912C135.594 32.232 135.674 32.516 135.834 32.764C135.994 33.004 136.226 33.196 136.53 33.34C136.842 33.484 137.226 33.556 137.682 33.556Z" fill="#121212"/>
<path d="M153.555 35.5V18.22H164.715V20.932H156.447V25.192H163.275V27.904H156.447V32.788H164.715V35.5H153.555ZM168.554 35.5V17.86H171.446V35.5H168.554ZM176 20.572V17.92H178.892V20.572H176ZM176 35.5V22.54H178.892V35.5H176ZM190.803 35.5C189.947 35.66 189.107 35.728 188.283 35.704C187.467 35.688 186.735 35.54 186.087 35.26C185.439 34.972 184.947 34.52 184.611 33.904C184.315 33.344 184.159 32.772 184.143 32.188C184.127 31.604 184.119 30.944 184.119 30.208V18.94H186.999V30.04C186.999 30.56 187.003 31.016 187.011 31.408C187.027 31.8 187.111 32.12 187.263 32.368C187.551 32.848 188.011 33.116 188.643 33.172C189.275 33.228 189.995 33.196 190.803 33.076V35.5ZM181.767 24.808V22.54H190.803V24.808H181.767ZM199.545 35.86C198.233 35.86 197.081 35.576 196.089 35.008C195.097 34.44 194.321 33.652 193.761 32.644C193.209 31.636 192.933 30.476 192.933 29.164C192.933 27.748 193.205 26.52 193.749 25.48C194.293 24.432 195.049 23.62 196.017 23.044C196.985 22.468 198.105 22.18 199.377 22.18C200.721 22.18 201.861 22.496 202.797 23.128C203.741 23.752 204.441 24.636 204.897 25.78C205.353 26.924 205.525 28.272 205.413 29.824H202.545V28.768C202.537 27.36 202.289 26.332 201.801 25.684C201.313 25.036 200.545 24.712 199.497 24.712C198.313 24.712 197.433 25.08 196.857 25.816C196.281 26.544 195.993 27.612 195.993 29.02C195.993 30.332 196.281 31.348 196.857 32.068C197.433 32.788 198.273 33.148 199.377 33.148C200.089 33.148 200.701 32.992 201.213 32.68C201.733 32.36 202.133 31.9 202.413 31.3L205.269 32.164C204.773 33.332 204.005 34.24 202.965 34.888C201.933 35.536 200.793 35.86 199.545 35.86ZM195.081 29.824V27.64H203.997V29.824H195.081Z" fill="#4DAAB8"/>
</svg>
