<svg width="51" height="52" viewBox="0 0 51 52" fill="none" xmlns="http://www.w3.org/2000/svg">
<g id="logo">
<path fill-rule="evenodd" clip-rule="evenodd" d="M32.3238 15.6712C31.4484 13.0398 14.7724 -2.51828 6.68508 0.351745C-1.40512 3.21886 -1.56744 16.2504 3.07913 29.4595C7.7228 42.6686 11.6418 53.1329 16.2768 51.7473C18.7912 50.9962 20.5074 47.3302 22.7567 42.5255C23.8109 40.2737 24.9822 37.7717 26.4076 35.2025C31.3644 26.2722 33.8833 20.3721 32.3209 15.6712H32.3238ZM15.4681 32.8826C13.2303 33.4444 9.96637 14.9027 11.7404 14.1605C13.9781 13.2232 21.993 17.9037 22.5524 20.3371C23.1118 22.7706 17.7058 32.3179 15.4681 32.8797V32.8826Z" fill="#4DAAB8"/>
<path d="M45.3331 16.067C40.2086 16.067 39.1823 19.0486 37.9024 22.7672C37.2782 24.5806 36.5937 26.5692 35.3442 28.4728C35.0103 28.9816 34.6845 29.4747 34.3682 29.9533C31.1096 34.8845 28.8669 38.2784 29.2976 41.5392C29.5614 43.5186 31.5325 51.1739 35.8689 51.9656C39.2632 52.5856 43.0779 44.7178 46.0027 36.1136C49.684 25.2884 52.1884 16.067 45.3331 16.067Z" fill="#4DAAB8"/>
<path d="M38.5009 7.61996C35.3471 1.09108 41.2604 -1.61885 46.1882 1.45493C50.1043 3.89707 52.0116 10.0679 50.4608 12.7662C48.91 15.4645 41.559 13.9509 38.5009 7.61996Z" fill="#4DAAB8"/>
</g>
</svg>
